<svg width="46" height="53" viewBox="0 0 46 53" fill="none" xmlns="http://www.w3.org/2000/svg">
<path d="M0 7C0 3.13401 3.13401 0 7 0H39C42.866 0 46 3.13401 46 7V39C46 42.866 42.866 46 39 46H22.2329C20.8167 46 19.4724 46.6235 18.5577 47.7045L18.1436 48.194C16.3061 50.3655 12.9084 50.201 11.2893 47.8623C10.4818 46.696 9.15354 46 7.735 46H6.56188C2.93785 46 0 43.0621 0 39.4381V7Z" fill="black"/>
<g clip-path="url(#clip0)">
<path d="M27.311 23.5902C26.4535 21.5819 24.6561 20.1668 22.5027 19.8049C20.3494 19.4431 18.1881 20.1931 16.7215 21.8109L13.187 25.709C12.6005 26.3557 12.2454 27.1571 12.16 28.0259C12.0746 28.895 12.2671 29.7499 12.7164 30.4989C13.1663 31.2474 13.8308 31.819 14.6382 32.152C15.4456 32.485 16.32 32.5476 17.1669 32.3335L17.2236 32.319C19.3515 31.7976 21.6176 32.1865 23.4505 33.3894C23.9233 33.6996 24.4452 33.904 24.991 33.9957C25.2877 34.0456 25.5919 34.0621 25.899 34.0444C26.7709 33.9937 27.5857 33.6707 28.2557 33.1102C28.9253 32.5499 29.3869 31.8046 29.5904 30.9552C29.7939 30.1058 29.7202 29.2326 29.3774 28.4294L27.311 23.5902Z" fill="#F4CB38"/>
<path d="M14.6763 21.4613C15.5632 21.2813 16.3089 20.7163 16.7761 19.8703C17.2207 19.0653 17.3584 18.0952 17.1636 17.1386C16.9684 16.1825 16.4622 15.3437 15.7382 14.7765C14.9776 14.1809 14.0704 13.9523 13.1848 14.1331C11.4034 14.4953 10.288 16.4341 10.6985 18.456C11.0274 20.0657 12.2265 21.2484 13.6009 21.4794C13.9518 21.5384 14.3142 21.5352 14.6763 21.4613Z" fill="#F4CB38"/>
<path d="M20.6852 18.9517C22.7771 19.3032 24.8048 17.6502 25.2052 15.2669C25.6058 12.8831 24.2298 10.6577 22.1379 10.3062C20.0463 9.95477 18.0187 11.6082 17.6181 13.992C17.2177 16.3753 18.5935 18.6002 20.6852 18.9517Z" fill="#F4CB38"/>
<path d="M27.0586 21.1144L27.0588 21.1145C27.3626 21.2753 27.6824 21.3815 28.0093 21.4365C29.5348 21.6928 31.2081 20.8323 32.0621 19.2212C32.5539 18.2938 32.7069 17.2515 32.493 16.2866C32.2693 15.2765 31.6755 14.4708 30.8208 14.0178C29.9659 13.5648 28.9657 13.5258 28.0042 13.9076C27.0856 14.2723 26.3092 14.9841 25.8178 15.9116C24.7809 17.868 25.3376 20.202 27.0586 21.1144Z" fill="#F4CB38"/>
<path d="M35.1327 21.9525L35.1322 21.9518C33.8686 20.6437 31.6336 20.7431 30.1493 22.1737C28.6662 23.6054 28.4858 25.8348 29.7471 27.1433C30.207 27.6207 30.7964 27.911 31.4317 28.0178C32.5389 28.2038 33.7858 27.8322 34.7305 26.9224C36.2135 25.4907 36.394 23.2613 35.1327 21.9525Z" fill="#F4CB38"/>
</g>
<defs>
<clipPath id="clip0">
<rect width="26.1895" height="26.1895" fill="white" transform="translate(12.3399 7) rotate(9.53851)"/>
</clipPath>
</defs>
</svg>
